<?xml version="1.0" encoding="UTF-8" standalone="no"?>
<!-- Generator: Adobe Illustrator 16.0.0, SVG Export Plug-In . SVG Version: 6.00 Build 0)  -->

<svg
   xmlns:dc="http://purl.org/dc/elements/1.1/"
   xmlns:cc="http://creativecommons.org/ns#"
   xmlns:rdf="http://www.w3.org/1999/02/22-rdf-syntax-ns#"
   xmlns:svg="http://www.w3.org/2000/svg"
   xmlns="http://www.w3.org/2000/svg"
   xmlns:sodipodi="http://sodipodi.sourceforge.net/DTD/sodipodi-0.dtd"
   xmlns:inkscape="http://www.inkscape.org/namespaces/inkscape"
   version="1.1"
   id="Layer_1"
   x="0px"
   y="0px"
   width="1000"
   height="997.66302"
   viewBox="0 0 1000 997.66301"
   enable-background="new 0 0 1000 885.989"
   xml:space="preserve"
   inkscape:version="0.92.2 (5c3e80d, 2017-08-06)"
   sodipodi:docname="American Express (Print).svg"><metadata
     id="metadata15"><rdf:RDF><cc:Work
         rdf:about=""><dc:format>image/svg+xml</dc:format><dc:type
           rdf:resource="http://purl.org/dc/dcmitype/StillImage" /><dc:title></dc:title></cc:Work></rdf:RDF></metadata><defs
     id="defs13" /><sodipodi:namedview
     pagecolor="#ffffff"
     bordercolor="#666666"
     borderopacity="1"
     objecttolerance="10"
     gridtolerance="10"
     guidetolerance="10"
     inkscape:pageopacity="0"
     inkscape:pageshadow="2"
     inkscape:window-width="1366"
     inkscape:window-height="705"
     id="namedview11"
     showgrid="false"
     inkscape:zoom="0.37670264"
     inkscape:cx="635.40743"
     inkscape:cy="464.19259"
     inkscape:window-x="-8"
     inkscape:window-y="-8"
     inkscape:window-maximized="1"
     inkscape:current-layer="Layer_1" /><path
     style="fill:#000000;stroke-width:1.13154304"
     d="M 0 0 L 0 997.66211 L 994.07227 997.66211 L 994.07227 698.82031 C 982.83535 704.23399 968.14589 706.32617 953.10352 706.32617 L 880.64453 706.32617 L 880.64453 695.88086 C 872.29148 702.6011 857.12928 706.32617 842.69531 706.32617 L 614.42969 706.32617 L 614.42969 668.57422 C 614.42969 664.03447 613.98822 663.77148 609.33984 663.77148 L 605.74805 663.77148 L 605.74805 706.32617 L 530.59961 706.32617 L 530.59961 662.29492 C 518.03722 667.71614 503.7156 668.15472 491.68164 667.98047 L 482.66797 667.98047 L 482.66797 706.36914 L 391.65234 706.32617 L 369.21875 680.96094 L 345.46094 706.32617 L 197.62109 706.32617 L 197.62109 543.1582 L 348.32422 543.1582 L 369.89844 568.19336 L 392.96289 543.1582 L 493.81836 543.1582 C 505.47552 543.1582 524.51608 544.39422 533.17578 552.70312 L 533.17578 543.1582 L 623.17773 543.1582 C 631.72767 543.1582 650.01773 544.94526 660.88281 552.70312 L 660.88281 543.1582 L 797.51562 543.1582 L 797.47266 552.70312 C 804.32415 546.22278 818.67186 543.1582 830.83594 543.1582 L 907.30664 543.1582 L 907.30664 552.70312 C 915.37228 546.88474 926.6792 543.1582 942.32617 543.1582 L 994.07227 543.1582 L 994.07227 0 L 0 0 z M 33.816406 342.04492 L 106.66211 342.04492 L 116.11523 361.35156 L 116.11523 342.04492 L 201.55469 342.04492 L 220.14453 384.1582 L 238.42383 342.04492 L 509.66211 342.04492 C 521.93822 342.04492 533.02039 344.31662 541.24219 351.56641 L 541.24219 342.04492 L 615.40039 342.04492 L 615.40039 351.56641 C 628.1823 344.53614 644.09172 342.04492 662.0957 342.04492 L 769.68555 342.04492 L 779.62305 361.35156 L 779.62305 342.04492 L 859.28906 342.04492 L 870.13281 361.35156 L 870.13281 342.04492 L 947.70508 342.04492 L 947.70508 505.12305 L 869.33984 505.12305 L 854.5293 480.41797 L 854.5293 505.12305 L 756.68164 505.12305 L 746.03906 479.05273 L 721.90625 479.05273 L 711.02148 505.12305 L 660.20312 505.12305 C 640.34681 505.12305 625.13958 500.40681 615.40039 495.16211 L 615.40039 505.12305 L 494.74414 505.12305 L 494.74414 468.12305 C 494.74414 462.94285 493.81885 462.54725 490.59961 462.50195 L 486.08203 462.50195 L 486.21289 505.12305 L 252.78125 505.12305 L 252.78125 485.02539 L 244.4082 505.16602 L 195.68164 505.16602 L 187.26562 485.22266 L 187.26562 505.12305 L 93.330078 505.12305 L 82.607422 479.05273 L 58.533203 479.05273 L 47.744141 505.12305 L 0.01171875 505.12305 L 0.01171875 419.50781 L 33.816406 342.04492 z M 563.6543 365.18359 L 563.6543 482.07227 L 592.15039 482.07227 L 592.15039 365.18359 L 563.6543 365.18359 z M 663.33008 365.20312 C 644.09045 365.20313 629.9444 369.52598 620.91016 378.89062 C 608.92146 391.36364 605.83398 407.16465 605.83398 424.50781 C 605.83398 445.83966 610.83559 459.19607 620.79883 469.20117 C 630.42826 479.05239 647.61868 482.07227 661.2832 482.07227 L 694.00781 482.07227 L 704.43164 456.02344 L 762.58789 456.02344 L 773.42969 482.07227 L 830.35547 482.07227 L 830.31055 394.44922 L 883.24219 482.07227 L 922.84375 482.07227 L 922.84375 365.20508 L 894.30664 365.20508 L 894.30664 446.58984 L 845.16211 365.20312 L 802.54102 365.20312 L 802.54102 475.76758 L 755.27148 365.20312 L 713.39844 365.20312 L 674.0625 457.14453 L 661.48047 457.14453 C 654.14242 457.14453 646.29416 455.71164 642.06445 451.15039 C 636.77449 445.1781 634.33008 436.27528 634.33008 423.71289 C 634.33008 411.43905 637.63563 402.1381 642.32812 397.20117 C 647.88287 391.80258 653.72265 390.24023 663.92578 390.24023 L 690.30469 390.24023 L 690.30469 365.20312 L 663.33008 365.20312 z M 50.287109 365.20508 L 0.328125 482.07227 L 30.71875 482.07227 L 41.507812 456.02344 L 99.708984 456.02344 L 110.38672 482.07227 L 167.23242 482.07227 L 167.23242 390.46094 L 207.89062 482.07227 L 232.41797 482.07227 L 272.91406 390.68164 L 273.06641 482.07227 L 301.68164 482.07227 L 301.68164 365.20508 L 255.16992 365.20508 L 221.54102 444.56445 L 185.03711 365.20508 L 139.35156 365.20508 L 139.35156 475.92188 L 91.851562 365.20508 L 50.287109 365.20508 z M 322.46484 365.20508 L 322.46484 482.07227 L 415.79297 482.07227 L 415.79297 457.89648 L 350.46289 457.89648 L 350.46289 434.55859 L 414.21875 434.625 L 414.21875 410.60352 L 350.46289 410.60352 L 350.46289 389.62305 L 415.79297 389.62305 L 415.79297 365.20508 L 322.46484 365.20508 z M 435.20898 365.20508 L 435.20898 482.07227 L 463.07422 482.07227 L 463.07422 439.67188 L 493.13477 439.67188 C 503.2485 439.67186 509.35467 440.53091 513.45312 444.71875 C 518.63107 450.29273 517.92578 460.43216 517.92578 467.37305 L 518.03711 482.07227 L 546.20117 482.07227 L 546.20117 459.08789 C 546.20117 448.81801 545.47419 443.46221 541.50586 437.77734 C 539.0821 434.27295 533.88284 430.23899 527.7793 427.88086 C 535.00759 425.01579 547.43555 415.25307 547.43555 396.78516 C 547.43555 383.69547 542.1697 376.06971 533.30859 370.86914 C 524.25172 365.69006 513.69602 365.20508 499.50195 365.20508 L 435.20898 365.20508 z M 70.507812 385.12891 L 89.626953 431.67188 L 51.458984 431.67188 L 70.507812 385.12891 z M 733.65234 385.12891 L 753.00195 431.67188 L 714.48047 431.67188 L 733.65234 385.12891 z M 463.07422 389.62305 L 497.5 389.62305 L 497.51953 389.62305 C 502.42552 389.62346 507.50775 389.78212 510.83008 391.65234 C 512.17732 392.31345 513.33061 393.238 514.24414 394.39453 C 515.78144 396.32156 516.64844 398.90085 516.64844 402.00977 C 516.64844 407.12095 514.51291 411.19883 510.875 413.22656 C 507.08433 415.40817 502.54542 415.60547 497.10156 415.60547 L 497.05664 415.60547 L 463.07422 415.60547 L 463.07422 389.62305 z M 222.94531 566.41016 L 222.94531 683.33984 L 333.59375 683.33984 L 369.33984 644.68555 L 403.79492 683.33984 L 458.01953 683.33984 L 458.01953 644.13672 L 492.87109 644.13672 C 517.33392 644.13672 541.50586 637.36956 541.50586 604.95312 C 541.50586 572.55932 516.64967 566.41016 494.45898 566.41016 L 405.19336 566.41016 L 369.66992 604.6875 L 335.32422 566.41016 L 222.94531 566.41016 z M 554.70898 566.41016 L 554.70898 683.34375 L 582.7168 683.34375 L 582.7168 640.61133 L 612.66797 640.61133 C 622.82583 640.61133 629.04138 641.58017 633.0957 645.87891 C 638.27364 651.2775 637.63672 661.65609 637.63672 668.6875 L 637.63672 683.3418 L 665.64648 683.3418 L 665.64648 660.17773 C 665.60235 649.86711 664.94064 644.57698 661.01758 638.82422 C 658.63795 635.38772 653.54451 631.24448 647.33008 628.97461 C 654.6919 626.06654 667.09866 616.54593 667.09766 597.94336 C 667.09766 584.63528 661.58977 577.23022 652.82031 571.98438 C 643.67292 567.00558 633.36091 566.41016 619.16797 566.41016 L 554.70898 566.41016 z M 682.6582 566.41016 L 682.6582 683.3418 L 775.94336 683.3418 L 775.94336 659.05469 L 710.49219 658.94531 L 710.49219 635.69531 L 774.31055 635.69531 L 774.31055 611.85156 L 710.49219 611.85156 L 710.49219 590.65234 L 775.94336 590.65234 L 775.94336 566.41016 L 682.6582 566.41016 z M 829.29883 566.41016 C 800.0111 566.41016 789.34375 584.23844 789.34375 601.16406 C 789.34375 638.18702 822.09328 636.51225 848.20703 637.37109 C 853.07832 637.43672 856.00595 638.18591 858.10156 640.03711 C 860.10553 641.57827 861.58203 644.33274 861.58203 647.75 C 861.58203 650.98961 860.15005 653.59057 858.27734 655.35352 C 855.89771 657.55776 852.21774 658.24023 846.86328 658.24023 L 792.62695 658.24023 L 792.62695 683.3418 L 847.05859 683.3418 C 875.20233 683.3418 890.93555 671.59554 890.93555 646.38477 C 890.93555 634.4617 888.07085 627.32272 882.5625 621.63672 C 876.21454 615.28989 865.87951 612.71165 850.67383 612.27148 L 835.60156 611.89648 C 830.84003 611.85235 827.70966 611.54317 824.80273 610.5293 C 821.27571 609.22803 818.67578 606.20863 818.67578 601.84766 C 818.67578 598.14525 819.80051 595.30048 822.83984 593.38477 C 825.66078 591.51094 828.94511 591.29102 834.10156 591.29102 L 885.29492 591.29102 L 885.29492 566.41016 L 829.29883 566.41016 z M 938.38086 566.41016 C 909.11464 566.41016 898.35938 584.23844 898.35938 601.16406 C 898.35936 638.18702 931.08591 636.51225 957.31055 637.37109 C 962.13771 637.43672 965.04615 638.18591 967.14062 640.03711 C 969.1016 641.57827 970.55664 644.33274 970.55664 647.75 C 970.55664 650.98961 969.10239 653.59057 967.18555 655.35352 C 964.93718 657.55776 961.1923 658.24023 955.90234 658.24023 L 902.15039 658.24023 L 902.15039 683.3418 L 956.12109 683.3418 C 973.9771 683.3418 987.19233 678.39207 994.07227 668.38672 L 994.07227 668.35742 C 998.03946 662.67141 1000 655.30923 1000 646.40625 C 1000 636.24612 998.03946 629.901 994.07227 624.5918 L 994.07227 624.56445 C 993.2642 623.60049 992.49927 622.55435 991.49414 621.63672 C 985.21408 615.29103 974.98921 612.71278 959.73828 612.27148 L 944.64258 611.89648 C 939.94668 611.85235 936.77555 611.54317 933.88672 610.5293 C 930.20694 609.22803 927.73828 606.20863 927.73828 601.84766 C 927.73828 598.14525 928.88683 595.30048 931.83789 593.38477 C 934.59207 591.51094 938.008 591.29102 943.05469 591.29102 L 994.07227 591.29102 L 994.07227 566.41016 L 938.38086 566.41016 z M 430.17383 579.01367 L 430.17383 672.7168 L 387.34375 625.09375 L 430.17383 579.01367 z M 250.7207 590.65234 L 320.76758 590.65234 L 351.30078 624.65625 L 319.43555 658.94531 L 250.7207 658.94531 L 250.7207 635.69531 L 312.06445 635.69531 L 312.06445 611.85156 L 250.7207 611.85156 L 250.7207 590.65234 z M 458.01953 590.65234 L 494.45898 590.65234 C 504.57271 590.65234 511.55859 594.68406 511.55859 604.95508 C 511.55859 615.06881 504.9026 620.33594 494.16992 620.33594 L 458.01953 620.33594 L 458.01953 590.65234 z M 582.71875 590.65234 L 617.1875 590.65234 C 622.09953 590.65234 627.12446 590.71673 630.42969 592.69922 C 634.06534 594.61832 636.22656 598.21226 636.22656 603.25781 C 636.22656 608.2151 634.06421 612.27035 630.42969 614.49609 C 626.74992 616.65621 622.09894 616.875 616.69922 616.875 L 582.71875 616.875 L 582.71875 590.65234 z "
     id="path3" /></svg>