<svg
   xmlns:dc="http://purl.org/dc/elements/1.1/"
   xmlns:cc="http://creativecommons.org/ns#"
   xmlns:rdf="http://www.w3.org/1999/02/22-rdf-syntax-ns#"
   xmlns:svg="http://www.w3.org/2000/svg"
   xmlns="http://www.w3.org/2000/svg"
   xmlns:sodipodi="http://sodipodi.sourceforge.net/DTD/sodipodi-0.dtd"
   xmlns:inkscape="http://www.inkscape.org/namespaces/inkscape"
   version="1.0"
   width="1000"
   height="1000"
   id="svg1928"
   inkscape:version="0.91 r13725"
   sodipodi:docname="CBS_Eyemark.svg">
  <metadata
     id="metadata3971">
    <rdf:RDF>
      <cc:Work
         rdf:about="">
        <dc:format>image/svg+xml</dc:format>
        <dc:type
           rdf:resource="http://purl.org/dc/dcmitype/StillImage" />
        <dc:title />
      </cc:Work>
    </rdf:RDF>
  </metadata>
  <sodipodi:namedview
     pagecolor="#ffffff"
     bordercolor="#666666"
     borderopacity="1"
     objecttolerance="10"
     gridtolerance="10"
     guidetolerance="10"
     inkscape:pageopacity="0"
     inkscape:pageshadow="2"
     inkscape:window-width="1366"
     inkscape:window-height="705"
     id="namedview3969"
     showgrid="false"
     inkscape:zoom="0.5"
     inkscape:cx="950.40824"
     inkscape:cy="380.98699"
     inkscape:window-x="-8"
     inkscape:window-y="-8"
     inkscape:window-maximized="1"
     inkscape:current-layer="svg1928"
     fit-margin-top="0"
     fit-margin-left="0"
     fit-margin-right="0"
     fit-margin-bottom="0" />
  <defs
     id="defs1931">
    <filter
       inkscape:collect="always"
       id="filter4743"
       x="-0.23999999"
       width="1.48"
       y="-0.23999999"
       height="1.48"
       style="color-interpolation-filters:sRGB">
      <feGaussianBlur
         inkscape:collect="always"
         stdDeviation="18.515625"
         id="feGaussianBlur4745" />
    </filter>
    <clipPath
       clipPathUnits="userSpaceOnUse"
       id="clipPath4749">
      <path
         d="M 92.593754,0 C 41.485799,-9.9999997e-7 0,41.485795 0,92.593752 0,143.70171 41.48579,185.15625 92.593754,185.15625 143.7017,185.15624 185.15625,143.70171 185.15625,92.593752 185.15625,41.485792 143.70171,0 92.593754,0 Z m -3.40625,39.5 c 0.91489,-0.01786 1.83341,-0.01244 2.75,0 30.870236,-0.127652 61.290266,15.768585 78.187496,41.71875 2.26153,3.35523 5.24767,8.747192 6.40625,11.375002 C 166.02852,115.03261 146.03119,132.6595 122.5625,140.53125 92.011544,151.3655 55.798401,144.82379 31.71875,122.90625 22.04685,114.50521 14.58633,103.61079 8.59375,92.593752 11.13919,88.495224 14.01418,82.718616 17.3125,78.375 33.419418,55.072594 60.825712,40.053694 89.187504,39.5 Z m 3.375,8.5625 c -24.574624,0 -44.500007,19.925376 -44.500004,44.500002 0,24.574618 19.92538,44.531238 44.500004,44.531248 24.574616,0 44.531246,-19.95663 44.531246,-44.531248 0,-24.574622 -19.95663,-44.500004 -44.531246,-44.500002 z"
         style="fill:#e6e6e6;filter:url(#filter4743)"
         id="path4751"
         inkscape:connector-curvature="0" />
    </clipPath>
    <clipPath
       clipPathUnits="userSpaceOnUse"
       id="clipPath4753">
      <path
         d="M 92.593754,0 C 41.485799,-9.9999997e-7 0,41.485795 0,92.593752 0,143.70171 41.48579,185.15625 92.593754,185.15625 143.7017,185.15624 185.15625,143.70171 185.15625,92.593752 185.15625,41.485792 143.70171,0 92.593754,0 Z m -3.40625,39.5 c 0.91489,-0.01786 1.83341,-0.01244 2.75,0 30.870236,-0.127652 61.290266,15.768585 78.187496,41.71875 2.26153,3.35523 5.24767,8.747192 6.40625,11.375002 C 166.02852,115.03261 146.03119,132.6595 122.5625,140.53125 92.011544,151.3655 55.798401,144.82379 31.71875,122.90625 22.04685,114.50521 14.58633,103.61079 8.59375,92.593752 11.13919,88.495224 14.01418,82.718616 17.3125,78.375 33.419418,55.072594 60.825712,40.053694 89.187504,39.5 Z m 3.375,8.5625 c -24.574624,0 -44.500007,19.925376 -44.500004,44.500002 0,24.574618 19.92538,44.531238 44.500004,44.531248 24.574616,0 44.531246,-19.95663 44.531246,-44.531248 0,-24.574622 -19.95663,-44.500004 -44.531246,-44.500002 z"
         style="fill:#e6e6e6;filter:url(#filter4743)"
         id="path4755"
         inkscape:connector-curvature="0" />
    </clipPath>
  </defs>
  <g
     transform="matrix(8.1902784,0,0,8.8742398,1153.8142,153.47996)"
     id="g3054"
     style="fill:#000000;fill-opacity:1">
    <path
       inkscape:connector-curvature="0"
       d="m -79.73532,-17.294999 c -34.05725,0 -61.14074,25.3257739 -61.14074,56.17391 0,31.186025 27.08349,56.511799 61.14074,56.511799 34.236955,0 60.955231,-25.325774 60.955231,-56.50652 0.006,-30.8481341 -26.718276,-56.179189 -60.955231,-56.179189 z m 0,23.8422685 c 27.808107,0 48.184491,16.0813315 56.793001,32.3369205 -8.60851,16.503728 -28.984894,32.669565 -56.793001,32.669565 -27.98781,0 -48.19028,-16.165837 -56.793,-32.664285 8.60272,-16.250311 28.81098,-32.3422005 56.793,-32.3422005 z m 0,2.5552444 c -18.115558,0 -32.88047,13.3571431 -32.88047,29.7763971 0,16.66739 14.764912,29.945341 32.88047,29.945341 18.115557,0 32.694959,-13.277951 32.694959,-29.934782 0,-16.419255 -14.579402,-29.7869561 -32.694959,-29.7869561 z"
       id="path2997"
       style="fill:#000000;fill-opacity:1"
       sodipodi:nodetypes="ssscsccscccsssss" />
  </g>
</svg>
